<svg class="svg" version="1.1" id="Capa_1" xmlns="http://www.w3.org/2000/svg" x="0" y="0" viewBox="0 0 464 464" xml:space="preserve"><style>@keyframes monitor-animation{0%,to{fill:#29abe2}25%{fill:#df5c5c}50%{fill:#51bd3b}75%{fill:#ddcf54}}.file-component{transition:.5s all ease;transform:translateY(25px)}.animated:hover .file-component{transform:translateY(0)}.animated:hover .left-arrow{transform:translateX(-15px)}.animated:hover .right-arrow{transform:translateX(15px)}.animated:hover .monitor{animation:monitor-animation 2.5s ease infinite}</style><rect class="animated"></rect><path d="M448 440V120c0-13.255-10.745-24-24-24H40c-13.255 0-24 10.745-24 24v320h432z" fill="#ccc"/><path d="M464 416v24c0 13.255-10.745 24-24 24H24c-13.255 0-24-10.745-24-24v-24h160l16 16h112l16-16h160z" fill="#999"/><path fill="#29ABE2" class="monitor" d="M48 128h368v240H48V128z"/><path d="M224 392h16v16h-16v-16z" fill="#f2f2f2"/><path class="file-component" d="M144 328h-24c-13.255 0-24-10.745-24-24V24c0-13.255 10.745-24 24-24h224c13.255 0 24 10.745 24 24v280c0 13.255-10.745 24-24 24H144z" fill="#e6e6e6"/><path class="file-component" d="M128 248h208v16H128v-16zM128 280h192v16H128v-16zM176 216h160v16H176v-16zM144 216h16v16h-16v-16z" fill="#999"/><path class="file-component left-arrow" d="M195.2 174.4l-32-24a8 8 0 010-12.8l32-24 9.6 12.8-23.464 17.6 23.464 17.6-9.6 12.8z" fill="#da4836"/><path class="file-component right-arrow" d="M268.8 174.4l-9.6-12.8 23.464-17.6-23.464-17.6 9.6-12.8 32 24a8 8 0 010 12.8l-32 24z" fill="#da4836"/><path class="file-component" d="M208.574 181.025l32.007-79.994 14.862 5.947-32.007 79.994-14.862-5.947z" fill="#da4836"/><path class="file-component" d="M120 0h224c13.255 0 24 10.745 24 24v40H96V24c0-13.255 10.745-24 24-24z" fill="#0071bc"/><path class="file-component" d="M120 24h16v16h-16V24z" fill="#da4836"/><path class="file-component" d="M152 24h16v16h-16V24z" fill="#f8cf26"/><path class="file-component" d="M184 24h16v16h-16V24z" fill="#3dbf50"/></svg>