<svg height="512" viewBox="0 0 58 55" width="512" xmlns="http://www.w3.org/2000/svg"><g id="Page-1" fill="none" fill-rule="evenodd"><g id="031---Flag" fill-rule="nonzero"><path id="Shape" d="m57.5116 28.0432c-11.2298 13.4339-31.0063-3.7162-41.8734 11.0158l-7.7361-27.6843c10.867-14.7321 30.6436 2.4181 41.8734-11.0158.5475-.6609 1.074-.3764.9546.5857-.7157917 5.8026643-1.8246743 11.5500438-3.319 17.2025-.0972004.3295576.0023256.6856844.2563.9171 3.0133525 2.7644313 6.3992869 5.0928797 10.059 6.9174.4418.1905.3336 1.4003-.2148 2.0616z" fill="#df4d60"/><path id="Shape" d="m50.73.94c-.7141169 5.80547419-1.8233576 11.5554837-3.32 17.21-.0314552.0967915-.0383284.1998896-.02.3-11.16 4.81-26.47-5.25-35.8 6.11-1.23-4.4-2.46-8.7966667-3.69-13.19 10.87-14.73 30.65 2.42 41.88-11.01.54-.66 1.07-.38.95.58z" fill="#ff5364"/><path id="Shape" d="m3.44 12.87 11.36 40.67c.2801032 1.0014575 1.3177881 1.5873916 2.32 1.31l.91-.26c.4793635-.1329227.8860096-.4513652 1.1299798-.8848815s.3051554-.946374.1700202-1.4251185l-3.69-13.22c-2.58-9.21-5.1533333-18.4233333-7.72-27.64l-.02-.05" fill="#5f5346"/><circle id="Oval" cx="4.5" cy="8.5" fill="#547580" r="4.5"/><circle id="Oval" cx="2.5" cy="7.5" fill="#95a5a5" r="1.5"/></g></g></svg>