<?xml version="1.0" encoding="iso-8859-1"?>
<!-- Generator: Adobe Illustrator 19.0.0, SVG Export Plug-In . SVG Version: 6.00 Build 0)  -->
<svg version="1.1" id="Capa_1" xmlns="http://www.w3.org/2000/svg" xmlns:xlink="http://www.w3.org/1999/xlink" x="0px" y="0px"
	 viewBox="0 0 512 512" style="enable-background:new 0 0 512 512;" xml:space="preserve">
<path style="fill:#CCEFFF;" d="M336.655,309.197C313.884,288.436,301,275.729,301,256s12.884-32.436,35.655-53.197
	C372.251,170.349,421,125.903,421,15H91c0,110.903,48.749,155.349,84.345,187.803C198.116,223.564,211,236.271,211,256
	s-12.884,32.436-35.655,53.197C139.749,341.651,91,386.097,91,497h330C421,386.097,372.251,341.651,336.655,309.197z"/>
<path style="fill:#ACE3FC;" d="M336.655,309.197C313.884,288.436,301,275.729,301,256s12.884-32.436,35.655-53.197
	C372.251,170.349,421,125.903,421,15H256v482h165C421,386.097,372.251,341.651,336.655,309.197z"/>
<g>
	<rect x="61" style="fill:#7D8AFF;" width="390" height="30"/>
	<rect x="61" y="482" style="fill:#7D8AFF;" width="390" height="30"/>
</g>
<path style="fill:#FFDC40;" d="M219.734,402.939c-17.129,2.703-38.368,6.014-38.368,6.014c-25.038,3.75-45.466,20.537-54.56,43.046
	h258.387c-9.094-22.509-29.522-39.296-54.56-43.046c0,0-21.239-3.312-38.368-6.014C280.019,401.007,271,390.451,271,378.053V256
	c0-33.935,22.073-54.06,45.443-75.367c15.053-13.724,31.771-28.974,45.555-50.633H150.001c13.785,21.659,30.502,36.91,45.555,50.633
	C218.927,201.94,241,222.065,241,256v122.053C241,390.451,231.981,401.007,219.734,402.939z"/>
<path style="fill:#FFAB15;" d="M316.443,180.633c15.053-13.724,31.771-28.974,45.555-50.633H256v322h129.193
	c-9.094-22.509-29.522-39.296-54.56-43.046c0,0-21.239-3.312-38.368-6.014C280.019,401.007,271,390.451,271,378.053V256
	C271,222.065,293.073,201.94,316.443,180.633z"/>
<g>
	<rect x="256" style="fill:#6E76E5;" width="195" height="30"/>
	<rect x="256" y="482" style="fill:#6E76E5;" width="195" height="30"/>
</g>
<g>
</g>
<g>
</g>
<g>
</g>
<g>
</g>
<g>
</g>
<g>
</g>
<g>
</g>
<g>
</g>
<g>
</g>
<g>
</g>
<g>
</g>
<g>
</g>
<g>
</g>
<g>
</g>
<g>
</g>
</svg>
