<?xml version="1.0" encoding="iso-8859-1"?>
<!-- Generator: Adobe Illustrator 19.0.0, SVG Export Plug-In . SVG Version: 6.00 Build 0)  -->
<svg version="1.1" id="Capa_1" xmlns="http://www.w3.org/2000/svg" xmlns:xlink="http://www.w3.org/1999/xlink" x="0px" y="0px"
	 viewBox="0 0 464 464" style="enable-background:new 0 0 464 464;" xml:space="preserve">
<path style="fill:#CCCCCC;" d="M448,440V120c0-13.255-10.745-24-24-24H40c-13.255,0-24,10.745-24,24v320H448z"/>
<path style="fill:#999999;" d="M464,416v24c0,13.255-10.745,24-24,24l0,0H24c-13.255,0-24-10.745-24-24l0,0v-24h160l16,16h112l16-16
	H464z"/>
<path style="fill:#29ABE2;" d="M48,128h368v240H48V128z"/>
<path style="fill:#F2F2F2;" d="M224,392h16v16h-16V392z"/>
<path style="fill:#E6E6E6;" d="M144,328h-24c-13.255,0-24-10.745-24-24V24c0-13.255,10.745-24,24-24h224c13.255,0,24,10.745,24,24
	v280c0,13.255-10.745,24-24,24H144z"/>
<g>
	<path style="fill:#999999;" d="M128,248h208v16H128V248z"/>
	<path style="fill:#999999;" d="M128,280h192v16H128V280z"/>
	<path style="fill:#999999;" d="M176,216h160v16H176V216z"/>
	<path style="fill:#999999;" d="M144,216h16v16h-16V216z"/>
</g>
<g>
	<path style="fill:#DA4836;" d="M195.2,174.4l-32-24c-3.535-2.651-4.251-7.665-1.6-11.2c0.455-0.606,0.994-1.145,1.6-1.6l32-24
		l9.6,12.8L181.336,144l23.464,17.6L195.2,174.4z"/>
	<path style="fill:#DA4836;" d="M268.8,174.4l-9.6-12.8l23.464-17.6L259.2,126.4l9.6-12.8l32,24c3.535,2.651,4.251,7.665,1.6,11.2
		c-0.455,0.606-0.994,1.145-1.6,1.6L268.8,174.4z"/>
	<path style="fill:#DA4836;" d="M208.574,181.025l32.007-79.994l14.862,5.947l-32.007,79.994L208.574,181.025z"/>
</g>
<path style="fill:#0071BC;" d="M120,0h224c13.255,0,24,10.745,24,24v40l0,0H96l0,0V24C96,10.745,106.745,0,120,0z"/>
<path style="fill:#DA4836;" d="M120,24h16v16h-16V24z"/>
<path style="fill:#F8CF26;" d="M152,24h16v16h-16V24z"/>
<path style="fill:#3DBF50;" d="M184,24h16v16h-16V24z"/>
<g>
</g>
<g>
</g>
<g>
</g>
<g>
</g>
<g>
</g>
<g>
</g>
<g>
</g>
<g>
</g>
<g>
</g>
<g>
</g>
<g>
</g>
<g>
</g>
<g>
</g>
<g>
</g>
<g>
</g>
</svg>
